<?xml version="1.0" standalone="no"?>
<!DOCTYPE svg PUBLIC "-//W3C//DTD SVG 20010904//EN"
 "http://www.w3.org/TR/2001/REC-SVG-20010904/DTD/svg10.dtd">
<svg version="1.0" xmlns="http://www.w3.org/2000/svg"
 width="382.000000pt" height="283.000000pt" viewBox="0 0 382.000000 283.000000"
 preserveAspectRatio="xMidYMid meet">
<g transform="translate(0.000000,283.000000) scale(0.100000,-0.100000)"
fill="#000000" stroke="none">
<path d="M1741 2809 c-148 -26 -328 -100 -441 -181 -30 -21 -88 -71 -128 -110
-124 -121 -195 -237 -253 -411 -17 -50 -32 -93 -34 -95 -2 -2 -30 4 -64 13
-55 14 -64 14 -90 0 -40 -20 -41 -24 -45 -107 -2 -55 -10 -88 -31 -132 -24
-50 -27 -67 -22 -118 3 -34 16 -82 32 -115 34 -69 85 -103 200 -133 l83 -22
22 -50 c46 -101 124 -203 253 -330 129 -126 130 -127 124 -165 -13 -77 20 -73
-616 -73 -596 -1 -613 -2 -663 -47 -41 -36 -58 -91 -58 -193 0 -121 22 -172
89 -207 41 -21 56 -23 221 -23 123 0 180 -4 188 -12 7 -7 12 -40 12 -77 1 -94
14 -142 49 -173 l31 -28 1257 -2 c692 -1 1278 -2 1303 -2 110 -1 130 25 130
168 0 52 3 101 6 110 5 14 35 16 226 16 249 0 272 5 283 64 5 22 1 44 -10 66
-15 28 -15 41 -5 97 15 79 9 125 -25 173 -47 67 -22 64 -643 70 l-564 5 -24
30 c-26 33 -32 91 -13 128 7 12 53 63 103 112 50 50 110 117 134 150 37 54 51
65 129 103 209 100 315 291 284 512 -21 152 -124 297 -255 359 -53 26 -65 37
-85 78 -69 144 -199 289 -345 387 -97 65 -167 97 -301 137 -87 27 -119 31
-245 34 -80 2 -169 0 -199 -6z m286 -129 c17 -59 17 -59 65 -70 27 -5 63 -16
82 -24 33 -14 34 -13 79 29 l45 44 63 -35 c35 -18 75 -42 87 -52 24 -18 24
-19 8 -72 l-16 -53 58 -61 c59 -64 61 -64 143 -51 45 7 46 7 69 -31 30 -49 50
-85 50 -90 0 -2 -23 -4 -51 -4 -27 0 -71 -5 -96 -12 -44 -11 -47 -10 -62 13
-39 58 -115 141 -169 182 -93 72 -233 135 -337 152 -22 3 -60 16 -84 27 -44
21 -46 21 -90 4 -25 -10 -64 -22 -86 -28 -115 -28 -187 -54 -252 -90 -138 -75
-266 -213 -328 -354 -19 -44 -32 -58 -61 -70 -43 -18 -50 -14 -36 24 9 27 7
33 -33 72 l-44 43 26 51 c14 28 36 67 49 87 l23 37 61 -13 61 -13 60 62 60 61
-15 55 -16 55 27 20 c14 11 54 35 87 52 l61 33 45 -44 c43 -42 46 -43 75 -30
17 7 53 18 81 24 l51 11 18 59 18 60 103 0 103 0 18 -60z m-55 -158 c26 -24
31 -36 31 -73 0 -25 -7 -56 -16 -69 -9 -14 -21 -49 -27 -78 l-12 -52 -43 0
-43 0 -6 44 c-4 24 -16 61 -26 82 -23 43 -26 103 -7 126 43 54 102 62 149 20z
m-192 -29 c-11 -23 -23 -31 -63 -41 -158 -37 -312 -158 -412 -321 -24 -40 -43
-61 -61 -65 -15 -4 -28 -5 -30 -3 -11 11 81 159 136 219 106 118 225 192 360
227 41 10 77 17 79 16 2 -2 -3 -17 -9 -32z m444 -25 c117 -59 283 -203 307
-266 11 -28 11 -27 -17 -36 -18 -5 -30 3 -64 46 -88 111 -235 210 -352 239
-36 9 -51 18 -62 40 -8 15 -12 30 -9 32 7 8 154 -33 197 -55z m-434 -88 l20
-39 -42 -11 c-107 -27 -210 -89 -277 -165 -21 -24 -49 -42 -78 -51 -75 -23
-77 -20 -33 49 27 43 32 46 50 35 27 -17 50 3 30 27 -11 14 -10 19 8 37 17 18
24 19 36 9 21 -18 37 -5 30 24 -8 32 29 54 55 31 23 -21 47 -6 32 21 -9 17 -6
22 16 32 24 11 29 10 44 -10 19 -26 39 -18 39 16 0 21 10 29 42 34 4 0 17 -17
28 -39z m294 31 c18 -7 23 -15 19 -29 -7 -29 17 -39 36 -14 13 16 21 18 40 11
18 -7 22 -14 17 -33 -7 -30 12 -40 36 -19 13 11 21 12 37 3 22 -11 28 -35 11
-45 -8 -5 -7 -11 1 -21 10 -13 15 -12 31 3 19 17 21 17 39 -6 18 -22 18 -25 3
-42 -19 -21 -8 -29 35 -26 15 1 31 -8 44 -26 l21 -27 -34 -29 -34 -28 -37 47
c-78 99 -167 159 -291 196 -27 8 -48 19 -48 24 0 13 34 70 42 70 4 0 18 -4 32
-9z m699 -266 c148 -38 250 -133 296 -275 88 -269 -137 -553 -417 -527 -110
11 -203 67 -289 176 -19 23 -31 25 -329 52 -170 15 -336 32 -369 37 l-60 10
50 2 c28 2 185 6 350 9 l299 6 13 44 c12 41 56 101 74 101 4 0 5 -24 2 -53 -4
-42 -2 -57 12 -71 17 -16 19 -15 45 31 41 71 81 97 160 101 60 3 69 1 107 -27
23 -17 49 -43 57 -58 24 -48 25 -137 1 -169 -13 -17 -13 -15 -4 19 19 69 -17
149 -81 182 -65 34 -163 9 -200 -50 -67 -109 55 -239 170 -180 34 18 70 61 70
86 0 10 5 21 12 25 19 12 0 -75 -23 -105 -29 -37 -77 -60 -129 -61 l-45 -2 35
-13 c19 -7 71 -14 116 -14 101 -1 161 26 233 104 59 65 81 124 81 218 0 115
-23 172 -96 244 -68 67 -127 93 -210 93 -99 0 -201 -41 -187 -75 4 -11 -2 -15
-20 -15 -13 0 -46 -3 -72 -7 l-47 -6 15 24 c8 13 17 35 21 49 9 40 24 58 34
42 7 -10 16 -9 45 8 42 25 150 58 192 59 17 1 57 -6 88 -14z m-793 -19 c127
-27 150 -34 150 -46 0 -5 7 -6 17 -3 11 4 14 3 9 -5 -4 -8 -2 -10 7 -6 8 3 30
-8 48 -24 19 -16 76 -50 126 -76 72 -35 103 -46 141 -46 149 0 378 -56 460
-112 23 -16 42 -31 42 -33 0 -2 -31 -1 -70 2 -49 4 -70 2 -70 -5 0 -17 39 -39
93 -53 45 -11 48 -13 42 -38 -20 -83 -89 -170 -159 -202 -54 -25 -81 -24 -34
1 59 32 110 102 128 178 8 30 6 33 -26 47 -38 16 -82 58 -95 92 -5 15 -25 28
-61 39 -46 15 -109 18 -455 22 -459 4 -530 17 -203 37 52 3 121 8 153 12 l58
6 -28 17 c-40 24 -93 41 -93 29 0 -5 6 -9 13 -10 6 0 7 -3 2 -5 -6 -2 -49 8
-95 22 -73 23 -108 28 -243 32 -87 2 -173 1 -192 -2 -34 -7 -35 -8 -36 -54 l0
-47 -17 43 c-17 44 -17 44 -57 38 -112 -18 -112 -18 -55 3 49 18 102 28 300
60 l55 9 -80 1 c-45 0 -105 -5 -135 -13 -30 -8 -82 -19 -115 -26 -76 -15 -265
-80 -265 -91 0 -5 15 -9 33 -9 17 0 73 -7 122 -16 196 -33 343 -44 650 -51
289 -6 316 -7 280 -20 -88 -30 -214 -45 -437 -50 -253 -6 -367 4 -506 44 -74
21 -118 26 -292 32 -216 8 -258 17 -307 63 -26 25 -31 53 -8 44 9 -3 44 -11
80 -17 83 -16 161 -3 346 56 78 25 200 61 272 79 127 33 158 38 292 52 33 3
62 8 64 10 9 8 88 3 151 -10z m798 -93 c34 -11 73 -34 101 -59 48 -43 90 -108
78 -120 -10 -10 -64 28 -90 64 -58 78 -156 121 -244 107 -37 -6 -38 -6 -13 9
33 20 101 20 168 -1z m-1967 -177 c19 -7 43 -16 54 -20 19 -7 19 -8 -4 -27
-29 -24 -121 -27 -121 -5 0 23 19 66 29 66 4 0 24 -6 42 -14z m209 -46 c-14
-4 -41 -8 -60 -9 -19 -1 -53 -12 -75 -26 -22 -13 -54 -25 -72 -25 -17 0 -44
-5 -59 -10 -26 -10 -26 -13 -21 -64 7 -67 37 -128 72 -144 15 -7 25 -15 22
-18 -11 -11 -62 21 -83 53 -11 17 -26 58 -33 90 -10 52 -9 60 7 83 15 20 32
27 78 32 37 5 65 15 78 28 17 17 33 20 96 19 53 -1 68 -3 50 -9z m390 -42 c89
-21 116 -23 405 -23 282 0 303 -1 230 -12 -356 -55 -643 -36 -750 52 l-20 16
20 -5 c11 -3 63 -15 115 -28z m-231 -14 c96 -28 163 -119 160 -218 -1 -26 -4
-22 -19 28 -31 96 -109 156 -205 156 -84 0 -177 -71 -191 -145 -3 -19 -11 -35
-16 -35 -12 0 -1 53 22 105 23 54 59 84 122 106 65 23 63 22 127 3z m304 -119
c15 -19 47 -46 71 -60 41 -24 57 -26 367 -46 178 -11 329 -24 336 -27 14 -8
-603 -5 -664 4 -54 7 -97 42 -128 105 -14 27 -25 51 -25 54 0 14 18 2 43 -30z
m-322 -50 c62 -254 294 -477 559 -539 84 -20 258 -20 352 -1 132 28 273 110
383 223 l52 54 53 -16 c30 -9 73 -16 97 -16 46 0 50 -5 28 -34 -13 -17 -19
-18 -76 -7 -34 7 -65 9 -69 4 -3 -4 -28 -32 -55 -61 l-48 -52 13 -57 c14 -65
14 -65 -99 -129 l-63 -36 -42 41 -43 42 -84 -23 -83 -24 -17 -54 c-16 -53 -18
-55 -60 -63 -24 -4 -72 -5 -106 -2 l-62 7 -17 58 c-15 55 -18 59 -52 65 -20 4
-56 13 -80 22 l-45 15 -42 -42 c-47 -46 -52 -46 -140 9 -83 51 -85 55 -68 118
l14 56 -58 58 -58 57 -63 -11 c-72 -13 -68 -15 -126 94 l-36 66 44 43 44 43
-19 55 c-31 90 -25 113 30 109 22 -2 27 -10 42 -72z m47 40 c16 -14 33 -37 37
-52 11 -47 64 -143 112 -205 90 -117 243 -215 388 -249 84 -19 255 -17 330 5
122 36 271 130 338 213 21 26 36 29 60 10 16 -11 14 -16 -25 -58 -97 -104
-201 -170 -339 -215 -74 -25 -99 -28 -209 -28 -138 0 -193 12 -316 69 -179 82
-323 240 -393 433 -42 114 -40 125 17 77z m372 -291 c44 -32 100 -59 165 -79
78 -23 93 -21 97 18 3 31 4 32 56 35 l52 3 0 -31 c0 -39 17 -46 78 -31 100 25
249 116 289 177 8 13 21 24 27 24 14 0 56 -45 56 -59 0 -17 -21 -23 -35 -11
-12 10 -18 10 -30 0 -14 -12 -14 -15 1 -32 16 -17 16 -19 -2 -33 -23 -18 -36
-19 -52 -3 -19 19 -37 -4 -23 -31 10 -18 8 -23 -14 -33 -19 -9 -28 -9 -37 0
-22 22 -41 14 -35 -13 3 -19 -1 -29 -15 -36 -24 -13 -48 -5 -48 16 0 17 -9 19
-28 7 -7 -5 -10 -16 -6 -26 4 -11 1 -22 -7 -27 -24 -15 -46 -10 -52 12 -7 26
-31 20 -35 -9 -5 -31 -62 -32 -62 -2 0 13 -7 20 -19 20 -10 0 -21 -9 -24 -20
-4 -15 -14 -20 -36 -20 -26 0 -31 4 -31 25 0 30 -25 34 -33 4 -9 -32 -51 -22
-55 14 -4 31 -17 34 -43 11 -26 -24 -62 -9 -56 23 5 28 -20 45 -33 23 -7 -11
-14 -11 -34 -2 -27 12 -34 36 -15 48 21 12 -13 23 -38 11 -33 -15 -60 11 -44
41 13 24 0 38 -26 28 -15 -6 -53 19 -53 35 0 4 14 16 32 27 l32 21 51 -49 c27
-27 66 -61 85 -76z m-1205 -669 l0 -30 -99 -3 c-55 -1 -106 -8 -113 -14 -15
-12 -18 -125 -3 -148 7 -11 36 -16 112 -20 l103 -5 0 -30 c0 -30 0 -30 -65
-33 -100 -5 -167 6 -198 33 -25 21 -27 30 -30 107 -4 98 6 131 50 158 29 18
47 20 138 18 l105 -3 0 -30z m356 -3 c27 -31 29 -37 29 -122 0 -85 -2 -91 -29
-122 l-29 -33 -111 0 c-110 0 -111 0 -141 31 -27 26 -32 39 -36 100 -12 149
27 187 189 182 97 -3 99 -3 128 -36z m191 21 c9 -10 45 -63 82 -117 l65 -100
3 115 3 114 35 0 35 0 3 -145 c3 -161 -1 -170 -62 -170 -42 1 -54 12 -116 110
-96 152 -90 151 -90 11 l0 -122 -32 3 -33 3 -3 138 c-1 83 2 145 8 157 14 26
80 28 102 3z m556 -15 l-3 -33 -105 -5 c-97 -5 -105 -7 -105 -25 0 -18 8 -20
92 -25 117 -7 133 -19 133 -100 0 -92 -5 -95 -162 -95 l-133 0 -3 32 -3 32
113 3 113 3 0 25 c0 24 -2 25 -85 30 -47 3 -95 11 -106 17 -41 24 -41 130 0
158 15 11 51 15 139 15 l118 0 -3 -32z m350 0 l-3 -33 -105 -5 c-99 -5 -105
-6 -108 -27 -3 -22 0 -22 105 -25 l108 -3 0 -30 0 -30 -107 -3 c-97 -2 -108
-5 -108 -21 0 -32 23 -40 126 -43 l99 -3 0 -30 0 -30 -123 0 -124 0 -30 34
c-29 33 -30 35 -26 128 3 92 4 95 36 124 32 28 34 29 148 29 l115 0 -3 -32z
m319 17 c32 -22 46 -75 34 -122 -13 -44 -21 -58 -39 -64 -9 -3 -4 -17 17 -49
40 -60 39 -70 -7 -70 -34 0 -41 5 -72 51 -33 48 -38 52 -82 56 l-47 3 -3 -52
-3 -53 -35 0 -35 0 -3 145 c-1 79 0 150 2 157 8 20 244 18 273 -2z m373 -20
l0 -35 -60 0 -60 0 0 -126 0 -125 -37 3 -38 3 -3 123 -3 122 -59 0 -60 0 0 35
0 35 160 0 160 0 0 -35z m455 0 l0 -30 -95 -3 c-115 -3 -130 -13 -130 -84 0
-77 10 -88 79 -88 32 0 79 -3 105 -6 44 -6 46 -8 46 -40 l0 -34 -104 0 c-56 0
-116 5 -133 10 -46 16 -63 56 -62 142 1 97 8 118 49 146 31 21 43 22 139 20
l106 -3 0 -30z m323 -115 c39 -80 70 -151 67 -157 -9 -25 -58 -10 -78 24 -19
33 -19 33 -98 33 l-80 0 -20 -35 c-17 -29 -27 -35 -54 -35 -19 0 -36 3 -38 8
-5 8 124 274 144 298 8 10 26 14 48 12 36 -3 37 -4 109 -148z m384 123 c17
-18 22 -34 22 -79 1 -49 -2 -58 -28 -81 -16 -14 -25 -28 -20 -31 5 -4 22 -26
37 -49 l27 -43 -38 0 c-35 0 -41 4 -71 50 -32 50 -33 50 -87 50 l-54 0 0 -49
c0 -43 -3 -49 -23 -53 -46 -9 -47 -4 -47 151 0 81 3 151 7 155 5 4 63 6 130 4
111 -3 125 -5 145 -25z m-1034 -140 c-3 -27 -5 -28 -71 -31 -62 -3 -68 -1 -76
20 -5 13 -7 26 -4 31 2 4 38 7 79 7 l75 0 -3 -27z m-140 -248 c12 -14 17 -27
12 -30 -6 -4 -4 -13 5 -22 12 -11 15 -32 13 -77 l-3 -61 -58 -3 c-67 -3 -87 8
-87 48 0 32 15 40 71 40 21 0 39 5 39 10 0 6 -22 10 -50 10 -43 0 -50 3 -50
20 0 17 7 20 40 20 37 0 49 8 33 23 -3 4 -12 2 -19 -4 -8 -6 -21 -8 -30 -5
-15 6 -14 9 6 31 30 32 51 32 78 0z m-1628 -1 c0 -9 -9 -18 -20 -21 -11 -3
-20 -9 -20 -14 0 -5 9 -9 20 -9 12 0 20 -7 20 -16 0 -9 -9 -18 -20 -21 -17 -5
-20 -14 -20 -59 0 -47 -2 -54 -20 -54 -17 0 -20 7 -20 50 0 28 -6 59 -12 70
-9 14 -10 23 -3 28 6 4 16 19 22 35 10 21 19 27 43 27 21 0 30 -5 30 -16z m77
0 c8 -21 -13 -42 -28 -27 -13 13 -5 43 11 43 6 0 13 -7 17 -16z m268 -9 c0
-11 -8 -21 -17 -23 -14 -3 -18 3 -18 23 0 20 4 26 18 23 9 -2 17 -12 17 -23z
m1605 -1 c0 -33 -33 -30 -38 4 -3 17 2 22 17 22 16 0 21 -6 21 -26z m-477 -46
c-2 -5 -3 -12 -3 -18 0 -5 -20 -10 -45 -10 -45 0 -45 0 -45 -35 0 -35 0 -35
44 -35 28 0 46 -5 49 -14 8 -21 -2 -26 -53 -26 -66 0 -84 17 -84 76 1 64 23
82 90 75 27 -3 48 -9 47 -13z m387 7 c3 2 5 -29 5 -68 0 -66 -2 -72 -22 -75
-20 -3 -22 2 -25 50 -3 52 -4 53 -35 56 l-33 3 0 -55 c0 -50 -2 -56 -20 -56
-19 0 -21 5 -18 72 3 68 5 73 28 78 14 3 45 3 70 -1 25 -4 47 -5 50 -4z
m-2012 -7 c7 -7 12 -36 12 -65 0 -63 -19 -78 -88 -70 -53 6 -62 17 -62 79 0
34 5 50 18 57 24 14 105 14 120 -1z m230 -66 c3 -67 1 -72 -18 -72 -18 0 -20
6 -20 76 0 66 2 75 18 72 14 -3 18 -16 20 -76z m185 72 c16 -17 -8 -34 -49
-34 -43 0 -44 0 -44 -34 0 -34 1 -35 48 -38 34 -2 47 -7 47 -18 0 -11 -14 -16
-52 -18 -63 -4 -93 19 -93 71 0 56 23 77 84 77 29 0 55 -3 59 -6z m87 -69 c0
-68 -2 -75 -20 -75 -18 0 -20 7 -20 75 0 68 2 75 20 75 18 0 20 -7 20 -75z
m190 60 c12 -14 16 -122 5 -133 -2 -2 -11 -2 -20 1 -11 5 -15 21 -15 57 l0 50
-35 0 -35 0 0 -55 c0 -48 -2 -55 -20 -55 -18 0 -20 7 -20 63 0 36 5 68 12 75
18 18 113 15 128 -3z m189 5 c15 -8 18 -21 17 -72 l-1 -63 -49 -3 c-27 -2 -60
-1 -73 3 -21 5 -24 11 -21 43 3 37 4 37 51 40 60 4 62 22 3 22 -45 0 -63 11
-51 30 8 13 101 13 124 0z m359 -2 c7 -7 12 -39 12 -75 0 -56 -2 -63 -20 -63
-18 0 -20 7 -20 55 0 48 -2 55 -20 55 -18 0 -20 -7 -20 -55 0 -48 -2 -55 -20
-55 -18 0 -20 7 -20 56 0 52 -1 55 -22 52 -20 -3 -23 -10 -26 -55 -3 -45 -6
-53 -23 -53 -16 0 -19 7 -19 56 0 88 6 94 103 94 51 0 88 -5 95 -12z m200 -35
l3 -43 -50 0 c-28 0 -51 -4 -51 -10 0 -5 23 -10 50 -10 43 0 50 -3 50 -20 0
-18 -7 -20 -59 -20 -66 0 -79 9 -88 64 -4 25 0 44 11 61 16 24 22 26 74 23
l57 -3 3 -42z m662 -28 c0 -68 -2 -75 -20 -75 -18 0 -20 7 -20 75 0 68 2 75
20 75 18 0 20 -7 20 -75z m188 58 c-2 -14 -15 -19 -51 -21 -46 -3 -47 -4 -47
-37 0 -33 1 -34 48 -37 34 -2 47 -7 47 -18 0 -23 -97 -26 -119 -5 -19 20 -22
105 -4 123 7 7 38 12 71 12 50 0 58 -2 55 -17z m171 3 c7 -9 11 -38 9 -73 l-3
-58 -44 -3 c-25 -2 -55 -1 -68 3 -21 5 -24 11 -21 43 3 37 4 37 51 40 61 4 61
20 0 24 -36 2 -49 7 -51 21 -3 15 5 17 56 17 39 0 64 -5 71 -14z"/>
<path d="M1870 2471 c-16 -31 4 -63 37 -59 34 4 52 32 37 56 -16 26 -60 28
-74 3z"/>
<path d="M528 634 c-9 -3 -21 -18 -26 -34 -12 -32 -5 -119 10 -137 7 -8 37
-13 84 -13 88 0 104 15 104 95 0 74 -14 88 -91 91 -35 2 -72 0 -81 -2z"/>
<path d="M1960 590 l0 -40 74 0 c66 0 75 2 81 20 3 11 3 29 0 40 -6 18 -15 20
-81 20 l-74 0 0 -40z"/>
<path d="M3178 603 c-6 -16 -17 -41 -24 -58 l-13 -30 51 -3 c27 -2 52 -1 55 1
5 6 -44 117 -52 117 -3 0 -10 -12 -17 -27z"/>
<path d="M3480 596 l0 -43 67 -6 c83 -6 103 3 103 47 0 41 -10 46 -101 46
l-69 0 0 -44z"/>
<path d="M2450 140 c0 -5 14 -10 30 -10 17 0 30 5 30 10 0 6 -13 10 -30 10
-16 0 -30 -4 -30 -10z"/>
<path d="M653 203 c-7 -2 -13 -20 -13 -39 0 -32 2 -34 35 -34 33 0 35 2 35 34
0 39 -21 54 -57 39z"/>
<path d="M1530 140 c0 -5 14 -10 30 -10 17 0 30 5 30 10 0 6 -13 10 -30 10
-16 0 -30 -4 -30 -10z"/>
<path d="M2103 202 c-34 -5 -28 -22 7 -22 17 0 30 4 30 9 0 14 -11 18 -37 13z"/>
<path d="M3110 135 c0 -10 10 -15 30 -15 20 0 30 5 30 15 0 10 -10 15 -30 15
-20 0 -30 -5 -30 -15z"/>
</g>
</svg>
